<svg width="182" height="153" viewBox="0 0 182 153" fill="none" xmlns="http://www.w3.org/2000/svg">
<path d="M149.337 152.526L1.83378 140.04C1.21261 139.988 0.81218 139.487 0.967315 138.957L12.761 98.6579C12.9051 98.1656 13.4759 97.8367 14.0453 97.918L68.6253 105.703C69.7729 105.866 70.4509 104.539 69.4896 104.011L27.5782 80.9845C27.0942 80.7186 26.9798 80.152 27.3228 79.7191L55.1538 44.5906C55.4968 44.1577 56.1672 44.0224 56.6513 44.2883L99.2463 67.6906C100.175 68.2007 101.355 67.2387 100.811 66.4151L72.6779 23.8191C72.4055 23.4067 72.5713 22.8624 73.0556 22.5788L110.508 0.645479C111.041 0.333032 111.744 0.460561 112.03 0.92189L181.17 112.385C181.352 112.679 181.322 113.047 181.09 113.339L150.388 152.092C150.15 152.392 149.742 152.56 149.337 152.526Z" fill="#FCC638"/>
</svg>
