<svg width="203" height="170" viewBox="0 0 203 170" fill="none" xmlns="http://www.w3.org/2000/svg">
<path d="M30.0243 35.3633C24.9136 7.41655 64.1488 -10.5872 89.7891 7.93913L107.912 21.0339C115.973 26.8586 126.661 29.4632 137.171 28.1645L160.8 25.2447C194.229 21.114 215.976 53.9793 193.926 75.3067L178.34 90.3813C171.407 97.0866 168.342 106.002 169.949 114.788L173.561 134.541C178.672 162.488 139.437 180.492 113.796 161.966L95.6733 148.871C87.6121 143.046 76.9245 140.442 66.4143 141.74L42.7856 144.66C9.35601 148.791 -12.3908 115.925 9.65991 94.598L25.2458 79.5234C32.1785 72.8182 35.2434 63.9029 33.6367 55.1166L30.0243 35.3633Z" fill="#FF5B5B"/>
</svg>
