<svg width="177" height="143" viewBox="0 0 177 143" fill="none" xmlns="http://www.w3.org/2000/svg">
<path d="M153.352 48.1777C166.394 48.1777 176.967 58.7506 176.967 71.793C176.967 84.8227 166.415 95.3868 153.39 95.4072C166.415 95.4277 176.967 105.993 176.967 119.022C176.967 132.065 166.394 142.638 153.352 142.638H24.5254C11.483 142.638 0.910156 132.065 0.910156 119.022C0.910188 105.993 11.4625 95.4278 24.4873 95.4072C11.4625 95.3866 0.910156 84.8226 0.910156 71.793C0.910188 58.7506 11.4831 48.1778 24.5254 48.1777H153.352ZM153.352 0.946289C166.394 0.946289 176.967 11.5192 176.967 24.5615C176.967 37.6039 166.394 48.1768 153.352 48.1768H24.5254C11.483 48.1767 0.910156 37.6039 0.910156 24.5615C0.910188 11.5192 11.4831 0.946321 24.5254 0.946289H153.352Z" fill="#F78AFF"/>
</svg>
