<svg width="38" height="38" viewBox="0 0 38 38" fill="none" xmlns="http://www.w3.org/2000/svg">
<rect width="38" height="38" rx="4" fill="#F4F4F4"/>
<path d="M31.35 12.8994C31.709 12.8994 32 13.1904 32 13.5494C32 13.9084 31.709 14.1994 31.35 14.1994H6.65C6.29101 14.1994 6 13.9084 6 13.5494C6 13.1904 6.29101 12.8994 6.65 12.8994H31.35Z" fill="#191919"/>
<path d="M31.35 23.8994C31.709 23.8994 32 24.1904 32 24.5494C32 24.9084 31.709 25.1994 31.35 25.1994H6.65C6.29101 25.1994 6 24.9084 6 24.5494C6 24.1904 6.29101 23.8994 6.65 23.8994H31.35Z" fill="#191919"/>
<path d="M27.4484 12.9C27.4484 15.0539 25.7023 16.8 23.5484 16.8C21.3945 16.8 19.6484 15.0539 19.6484 12.9C19.6484 10.7461 21.3945 9 23.5484 9C25.7023 9 27.4484 10.7461 27.4484 12.9Z" fill="#F4F4F4"/>
<path d="M26.1484 12.9C26.1484 11.4641 24.9844 10.3 23.5484 10.3C22.1125 10.3 20.9484 11.4641 20.9484 12.9C20.9484 14.3359 22.1125 15.5 23.5484 15.5V16.8C21.3945 16.8 19.6484 15.0539 19.6484 12.9C19.6484 10.7461 21.3945 9 23.5484 9C25.7023 9 27.4484 10.7461 27.4484 12.9C27.4484 15.0539 25.7023 16.8 23.5484 16.8V15.5C24.9844 15.5 26.1484 14.3359 26.1484 12.9Z" fill="#191919"/>
<path d="M18.3508 25.1998C18.3508 27.3537 16.6047 29.0998 14.4508 29.0998C12.2969 29.0998 10.5508 27.3537 10.5508 25.1998C10.5508 23.0459 12.2969 21.2998 14.4508 21.2998C16.6047 21.2998 18.3508 23.0459 18.3508 25.1998Z" fill="#F4F4F4"/>
<path d="M17.0508 25.1998C17.0508 23.7639 15.8867 22.5998 14.4508 22.5998C13.0148 22.5998 11.8508 23.7639 11.8508 25.1998C11.8508 26.6357 13.0148 27.7998 14.4508 27.7998V29.0998C12.2969 29.0998 10.5508 27.3537 10.5508 25.1998C10.5508 23.0459 12.2969 21.2998 14.4508 21.2998C16.6047 21.2998 18.3508 23.0459 18.3508 25.1998C18.3508 27.3537 16.6047 29.0998 14.4508 29.0998V27.7998C15.8867 27.7998 17.0508 26.6357 17.0508 25.1998Z" fill="#191919"/>
</svg>
