<svg width="50" height="51" viewBox="0 0 50 51" fill="none" xmlns="http://www.w3.org/2000/svg">
<path d="M13.6395 17.6074C12.5509 12.9045 18.2023 9.31275 22.2478 12.1363L25.1073 14.132C26.3792 15.0197 28.006 15.323 29.5609 14.9624L33.0565 14.1517C38.002 13.0048 41.6328 18.3274 38.5871 22.2593L36.4343 25.0385C35.4767 26.2747 35.1226 27.837 35.4648 29.3156L36.2342 32.6397C37.3227 37.3426 31.6714 40.9344 27.6258 38.1109L24.7663 36.1151C23.4944 35.2274 21.8677 34.9241 20.3128 35.2847L16.8172 36.0954C11.8717 37.2424 8.24088 31.9198 11.2866 27.9878L13.4394 25.2086C14.397 23.9724 14.7511 22.4101 14.4089 20.9315L13.6395 17.6074Z" fill="#FCC638"/>
<path d="M21.3125 25.8291L22.6396 27.9313C23.0239 28.5401 23.8878 28.5478 24.2823 27.9458L28.9133 20.8799" stroke="white" stroke-width="2" stroke-linecap="round"/>
</svg>
