<svg width="24" height="23" viewBox="0 0 24 23" fill="none" xmlns="http://www.w3.org/2000/svg">
<path d="M2.78675 5.19873C1.91198 1.41943 6.4535 -1.46698 9.70457 0.802036L12.0025 2.40582C13.0246 3.11919 14.3319 3.36296 15.5814 3.07317L18.3905 2.42169C22.3648 1.49997 25.2826 5.77729 22.835 8.93709L21.105 11.1705C20.3355 12.1639 20.0509 13.4194 20.3259 14.6076L20.9442 17.2789C21.819 21.0582 17.2775 23.9446 14.0264 21.6756L11.7285 20.0718C10.7063 19.3585 9.39904 19.1147 8.14954 19.4045L5.34042 20.056C1.36613 20.9777 -1.55163 16.7003 0.895966 13.5406L2.62598 11.3072C3.39549 10.3137 3.68007 9.05822 3.40505 7.87002L2.78675 5.19873Z" fill="#FCC638"/>
</svg>
