<svg width="51" height="51" viewBox="0 0 51 51" fill="none" xmlns="http://www.w3.org/2000/svg">
<path d="M14.2879 17.6069C13.1994 12.904 18.8507 9.31226 22.8963 12.1358L25.7558 14.1315C27.0277 15.0192 28.6545 15.3225 30.2093 14.9619L33.7049 14.1512C38.6504 13.0043 42.2812 18.3269 39.2355 22.2588L37.0827 25.038C36.1251 26.2742 35.771 27.8366 36.1132 29.3151L36.8826 32.6392C37.9712 37.3421 32.3198 40.9339 28.2743 38.1104L25.4148 36.1146C24.1429 35.2269 22.5161 34.9236 20.9612 35.2842L17.4656 36.0949C12.5201 37.2419 8.88932 31.9193 11.9351 27.9873L14.0878 25.2081C15.0454 23.9719 15.3995 22.4096 15.0573 20.931L14.2879 17.6069Z" fill="#F4F4F4"/>
</svg>
