<svg width="576" height="153" viewBox="0 0 576 153" fill="none" xmlns="http://www.w3.org/2000/svg">
<g clip-path="url(#clip0_981_755)">
<path d="M204.855 4.45622C204.265 3.11147 203.068 2.2641 201.775 2.28252C194.434 2.33778 187.093 2.30094 179.752 2.33778C178.683 2.33778 177.581 2.41147 176.528 2.66936C172.937 3.55358 171.517 7.40361 173.32 11.0878C177.645 19.93 182.002 28.7538 186.327 37.5959L206.292 7.71678C205.813 6.62993 205.334 5.54308 204.871 4.47465L204.855 4.45622Z" fill="#FCC638"/>
<path d="M145.647 96.1199C143.907 88.862 143.955 81.4014 144.019 73.9777C144.21 51.3749 143.907 30.7431 143.716 5.52455C143.716 4.65875 143.38 3.60875 142.87 3.03769C141.433 1.47189 139.662 0.919251 137.635 0.919251C107.84 0.827145 78.0448 0.716619 48.2496 0.495565C37.5412 0.42188 27.535 3.20348 18.4544 9.81669C8.65562 16.9641 2.27207 27.0036 0.420839 40.359C-0.201557 44.8169 0.133574 49.4591 0.0537795 54.0275C-0.0419737 59.8302 1.39433 65.246 3.56474 70.3487C9.34185 83.9067 19.2842 91.6068 31.413 95.9357C40.4297 99.1594 49.7497 99.7305 59.0697 98.7726C64.3521 98.2199 69.5547 97.4094 74.0072 94.0015C76.8 91.8462 75.7946 85.6199 75.7946 74.8619C75.7946 67.4382 71.4698 62.7592 64.9585 58.2828C57.6494 53.2538 47.1484 52.0933 47.3719 46.788C47.6751 40.0274 58.2718 39.1064 67.9109 33.6721C73.2412 30.6695 77.5341 27.1879 80.3588 24.7194C81.7951 23.4484 83.8698 24.6642 83.8379 26.7642C83.5187 44.0064 83.2953 96.9305 82.8325 98.9384C81.5717 104.409 78.9066 108.904 74.1987 110.728C71.0069 111.944 67.4481 112.22 64.0489 112.312C56.1492 112.515 48.2177 112.662 40.334 112.238C29.2745 111.667 19.4119 107.32 11.3686 98.22C10.5547 97.2989 9.67698 96.4331 8.87904 95.4752C7.63424 94.0015 4.71377 93.2646 3.29343 94.3147C0.995351 95.991 0.229327 99.2331 0.0537795 102.273C-0.329233 108.794 -0.0419713 112.294 0.293165 121.891C0.452754 126.644 0.564465 131.286 2.11248 135.762C3.67645 140.312 6.59692 142.818 10.6983 143.518C12.5815 143.831 14.5125 143.904 16.4276 143.904C32.7535 143.904 49.0954 143.812 65.4213 143.794C73.7678 143.794 82.1303 143.886 90.4768 143.794C95.9028 143.739 101.345 143.628 106.579 141.676C111.223 139.944 114.112 136.352 114.974 130.733C115.373 128.099 115.772 125.446 116.25 122.167C116.969 123.254 117.383 123.844 117.751 124.47C119.666 127.86 121.006 130.752 122.395 133.22L146.014 97.8884C145.902 97.2989 145.79 96.7278 145.647 96.1568V96.1199Z" fill="#FCC638"/>
<path d="M348.563 0.90105C344.031 0.937892 337.887 1.73 333.817 3.86686C330.418 5.6353 328.375 7.33004 325.582 10.5169C324.258 8.80374 322.901 6.85109 321.385 5.10108C318.576 1.87737 314.986 0.993161 311.187 0.956318C298.5 0.864212 285.797 0.71684 273.109 0.808946C269.758 0.827367 266.327 1.21422 263.071 2.11685C261.108 2.66949 258.954 4.10634 257.709 5.91161C255.347 9.33795 253.32 13.1696 251.629 17.1117C245.772 30.7986 240.122 44.5961 234.393 58.3567C233.515 60.4752 232.606 62.5752 231.585 64.9515C231.106 64.012 230.818 63.5331 230.595 63.0173C222.488 44.5961 214.365 26.1749 206.306 7.73531L186.341 37.6145C193.171 51.5409 199.986 65.4489 206.832 79.3569C209.817 85.4175 212.498 91.4964 212.354 98.7728C212.274 103.212 210.822 106.565 207.423 108.444C204.981 109.807 202.348 110.968 199.699 111.576C184.953 114.873 170.239 113.473 155.572 110.618C151.854 109.881 150.418 108.794 147.529 103.12C146.715 101.536 146.396 99.6939 146.045 97.8886L122.426 133.22C126.288 140.036 130.533 143.426 148.295 143.868C151.806 143.96 176.957 144.513 180.468 144.42L218.897 144.07C224.483 143.573 228.568 144.07 233.164 142.136C240.17 139.207 244.463 132.778 246.554 125.041C248.102 119.331 248.102 113.012 248.517 106.952C248.868 101.775 249.283 96.7096 251.661 92.1228C252.666 90.1701 253.448 88.0701 254.358 86.0622C260.63 72.1174 266.886 58.1541 273.205 44.2461C274.721 40.9119 276.988 37.6882 280.068 37.0066C284.584 35.9934 289.324 35.9566 293.952 36.1224C297.096 36.2329 297.878 37.8355 297.878 41.4829C297.878 54.6725 297.926 67.8436 297.878 81.0332C297.878 83.1332 297.83 85.2332 297.798 87.3148L349.632 0.919475C349.297 0.919475 348.946 0.919475 348.611 0.919475L348.563 0.90105Z" fill="#F78AFF"/>
<path d="M575.771 89.3042C575.611 84.92 575.579 80.4436 573.872 76.3173C573.01 74.2357 571.893 72.283 569.898 71.8778C567.823 71.4541 567.488 70.1278 567.68 68.1751C568.27 62.0409 565.669 57.6198 561.855 53.8619C556.971 49.0355 551.354 45.8855 545.066 44.3749C537.773 42.6249 530.463 41.0407 523.17 39.3091C518.303 38.167 513.403 37.1538 508.632 35.6433C505.025 34.5012 503.589 30.8722 504.849 27.4275C506.158 23.8537 510.563 21.4222 513.308 22.5827C514.281 22.988 515.255 23.4485 516.276 23.559C525.803 24.6459 535.028 23.1722 543.853 19.0274C545.273 18.3642 546.486 17.2221 547.3 15.73C548.242 13.9616 549.375 13.28 551.018 13.28C554.402 13.2984 557.785 13.4642 561.152 13.3352C562.7 13.28 564.344 12.93 565.748 12.2116C567.68 11.2352 567.807 9.33784 566.307 7.58783C565.78 6.96151 565.126 6.44573 564.488 5.9852C560.003 2.74307 555.088 1.01147 549.822 0.900948C539.432 0.698315 529.027 0.587791 518.622 0.587791C509.366 0.587791 500.142 0.845691 491.332 4.87993C485.89 7.36679 481.039 10.7563 477.687 16.4484C471.958 26.1748 472.836 42.4039 482.714 50.6013C490.614 57.1592 499.743 59.204 508.887 61.433C514.552 62.8145 520.266 63.9014 525.867 65.5961C531.309 67.2356 534.724 72.062 534.852 77.6068C534.964 82.9857 534.932 88.3832 534.932 93.7621C534.932 98.2938 533.528 102.752 530.767 105.994C527.607 109.715 524.176 111.207 519.659 111.152C468.272 110.581 416.884 112.073 365.497 109.752C355.586 109.31 345.66 109.77 335.749 109.641C334.792 109.641 332.222 106.528 331.871 105.717C330.786 103.212 330.563 103.065 330.515 100.394C330.275 84.2752 330.307 68.1383 330.387 52.0197C330.403 48.5197 330.722 44.946 331.424 41.5381C332.525 36.2144 334.967 31.738 339.34 29.1406C343.92 26.4143 348.915 26.2485 353.894 27.3906C358.698 28.4959 362.64 32.6038 363.996 38.0381C364.826 41.3723 365.241 44.9644 365.257 48.446C365.369 63.404 365.305 78.3436 365.337 93.3016C365.337 99.0859 367.029 101.038 371.976 101.075C378.551 101.131 385.126 101.112 391.685 101.075C394.542 101.075 397.015 98.6622 397.382 95.3832C397.606 93.32 397.654 91.22 397.654 89.12C397.686 78.9699 397.622 68.8014 397.686 58.6514C397.717 54.1566 397.686 49.6434 398.164 45.2039C398.883 38.5354 401.197 32.6775 406.591 29.2696C411.091 26.4327 415.99 26.2301 420.922 27.3353C426.683 28.6248 430.369 32.6959 431.646 39.2539C432.316 42.6618 432.572 46.2355 432.62 49.7355C432.827 63.8646 432.795 78.012 433.019 92.1411C433.114 98.2201 435.508 100.725 440.806 100.836C444.445 100.91 448.084 100.983 451.722 100.946C453.765 100.928 455.824 100.873 457.819 100.467C462.287 99.5464 465.032 95.6411 465.048 90.4463C465.048 75.4883 465.048 60.5487 465.064 45.5907C465.064 38.8486 464.41 32.2722 462.447 25.8617C457.819 10.6826 445.69 2.35622 434.231 1.0299C428.103 0.32989 421.863 0.60621 415.687 0.808843C406.096 1.14042 397.59 5.22993 389.946 11.751C389.02 12.5431 387.711 12.5247 386.865 11.6037C380.849 5.02729 373.699 1.19569 365.369 0.845686C360.102 0.624632 354.836 0.75358 349.57 0.808843L297.735 87.2042C297.639 92.2516 297.512 97.2806 297.512 102.328C297.512 109.107 297.767 115.868 297.927 122.647C297.943 123.365 298.118 124.102 298.278 124.802C300.177 132.962 309.178 141.362 317.365 142.376C321.929 142.928 326.525 143.149 331.105 143.37C334.488 143.518 337.872 143.37 341.255 143.463C341.877 143.481 342.883 143.96 343.058 144.512C344 147.423 345.979 148.786 348.373 149.357C350.99 149.984 353.655 150.444 356.304 150.684C363.023 151.292 369.694 150.739 376.269 149.044C378.599 148.436 380.642 147.441 381.408 144.42C381.519 143.978 382.253 143.463 382.7 143.463C389.531 143.407 396.361 143.407 403.175 143.463C403.622 143.463 404.436 144.163 404.468 144.586C404.755 147.902 406.638 149.726 409.048 150.444C413.038 151.641 417.108 152.765 421.193 153.078C426.779 153.502 432.412 153.207 438.03 153.078C439.673 153.042 441.349 152.728 442.929 152.231C446.28 151.199 448.403 148.528 448.403 145.213C448.403 143.61 448.961 143.37 450.095 143.37C458.074 143.37 466.037 143.352 474.017 143.407C474.687 143.407 475.597 143.757 475.996 144.328C478.182 147.478 481.039 149.357 484.39 150.02C492.433 151.605 500.509 151.918 508.568 150.205C511.504 149.578 513.85 147.791 515.366 144.641C515.67 143.997 516.627 143.444 517.297 143.426C523.617 143.334 529.937 143.334 536.241 143.407C536.911 143.407 537.836 143.757 538.219 144.328C540.805 148.289 544.348 149.523 548.242 148.473C556.652 146.189 562.285 139.87 565.653 130.881C566.147 129.555 565.429 127.639 565.318 125.981C565.254 124.931 565.046 123.826 565.254 122.849C565.924 119.644 566.722 116.475 567.552 113.307C567.727 112.644 568.19 111.796 568.685 111.594C571.35 110.562 572.866 108.352 573.824 105.478C575.563 100.228 575.946 94.72 575.739 89.1753L575.771 89.3042Z" fill="#FF5B5B"/>
</g>
<defs>
<clipPath id="clip0_981_755">
<rect width="576" height="153" fill="white"/>
</clipPath>
</defs>
</svg>
