<svg width="33" height="33" viewBox="0 0 33 33" fill="none" xmlns="http://www.w3.org/2000/svg">
<path d="M12.9045 2.85497C13.8478 -0.951655 19.1522 -0.951655 20.0955 2.85497C20.6618 5.13979 23.1175 6.34563 25.2225 5.37246C28.7295 3.75111 32.0367 7.97962 29.7061 11.105C28.3072 12.981 28.9137 15.6905 30.9723 16.7618C34.4022 18.5466 33.2218 23.8195 29.3722 23.9102C27.0615 23.9647 25.3621 26.1375 25.8242 28.4466C26.5941 32.2936 21.815 34.6402 19.3453 31.6279C17.8628 29.8199 15.1372 29.8199 13.6547 31.6279C11.185 34.6402 6.40592 32.2936 7.1758 28.4466C7.6379 26.1375 5.93846 23.9647 3.62782 23.9102C-0.22183 23.8195 -1.40216 18.5466 2.02765 16.7618C4.0863 15.6905 4.69282 12.981 3.29391 11.105C0.963261 7.97961 4.27046 3.75111 7.77748 5.37246C9.88247 6.34563 12.3382 5.13979 12.9045 2.85497Z" fill="#FF5B5B"/>
</svg>
